<svg width="45" height="45" viewBox="0 0 45 45" fill="none" xmlns="http://www.w3.org/2000/svg">
<path d="M44.9123 0H27.4965C25.2873 0 23.4965 1.79086 23.4965 4V41C23.4965 43.2091 25.2873 45 27.4965 45H44.8365V43.125L44.9123 41.25V37.0313V24.7812C44.9123 23.6767 44.0169 22.7812 42.9123 22.7812H32.9428C31.8382 22.7812 30.9428 23.6767 30.9428 24.7812V29.4005H34.9291C36.822 29.4005 38.3564 30.935 38.3564 32.8278V33.9106C38.3564 36.1519 36.5395 37.9688 34.2983 37.9688C32.057 37.9687 30.2402 36.1519 30.2402 33.9106V10.4277C30.2402 8.24123 32.0126 6.46875 34.1991 6.46875H34.2983C36.5395 6.46875 38.3564 8.28564 38.3564 10.5269V15.4377H42.9886C44.0976 15.4377 44.9948 14.5354 44.9885 13.4264L44.9123 0Z" fill="#554444"/>
<path d="M0 0H17.4158C19.625 0 21.4159 1.79086 21.4159 4V21.0213C21.4159 21.5736 20.9681 22.0213 20.4159 22.0213H2C0.895432 22.0213 0 21.1258 0 20.0213V0Z" fill="#352424"/>
<path d="M6.49701 10.5019C6.49701 8.24271 8.32847 6.41125 10.5877 6.41125V6.41125C12.8469 6.41125 14.6783 8.24271 14.6783 10.5019V10.9618C14.6783 13.2211 12.8469 15.0525 10.5877 15.0525V15.0525C8.32847 15.0525 6.49701 13.2211 6.49701 10.9618V10.5019Z" fill="white"/>
<path d="M0 24.9787C0 23.8741 0.895431 22.9787 2 22.9787H20.4159C20.9681 22.9787 21.4159 23.4264 21.4159 23.9787V41C21.4159 43.2091 19.625 45 17.4159 45H0V24.9787Z" fill="#352424"/>
<rect x="6.49701" y="29.39" width="8.18134" height="8.64126" rx="4.09067" fill="white"/>
</svg>
