<svg width="20" height="19" viewBox="0 0 20 19" fill="none" xmlns="http://www.w3.org/2000/svg">
<path d="M19.462 0H12.1818C11.0773 0 10.1818 0.89543 10.1818 2V16.9471C10.1818 18.0517 11.0773 18.9471 12.1818 18.9471H19.4292V18.1576L19.462 17.3682V15.5919V10.592C19.462 10.0397 19.0143 9.59196 18.462 9.59196H14.4086C13.8563 9.59196 13.4086 10.0397 13.4086 10.592V12.379H15.1781C15.9751 12.379 16.6211 13.0251 16.6211 13.822V14.2281C16.6211 15.1993 15.8338 15.9866 14.8626 15.9866C13.8914 15.9866 13.1041 15.1993 13.1041 14.2281V4.39054C13.1041 3.46994 13.8504 2.72364 14.771 2.72364H14.8626C15.8338 2.72364 16.6211 3.51096 16.6211 4.48217V6.5H18.4941C19.0487 6.5 19.4974 6.04872 19.4941 5.49416L19.462 0Z" fill="#554444"/>
<path d="M0 0H7.2802C8.38477 0 9.2802 0.89543 9.2802 2V8.27198C9.2802 8.82426 8.83249 9.27198 8.2802 9.27198H0.999999C0.447714 9.27198 0 8.82426 0 8.27198V0Z" fill="#352424"/>
<rect x="2.81537" y="2.69944" width="3.54525" height="3.63837" rx="1.77262" fill="white"/>
<path d="M0 10.6751C0 10.1228 0.447715 9.6751 1 9.6751H8.2802C8.83249 9.6751 9.2802 10.1228 9.2802 10.6751V16.9471C9.2802 18.0516 8.38477 18.9471 7.2802 18.9471H0V10.6751Z" fill="#352424"/>
<rect x="2.81537" y="12.3745" width="3.54525" height="3.63837" rx="1.77262" fill="white"/>
</svg>
